<svg xmlns="http://www.w3.org/2000/svg" width="1035" height="915">
  <g stroke-width="15" fill="none" stroke="none" stroke-linejoin="round" stroke-linecap="round">
    <path stroke-width="20" stroke="#728f9e" fill="#fff" d="M343 328c-43 96-6 199 32 287 37 84 88 159 143 231 32 43 65 79 95 18 5-12 7-24 13-34 3-5 7-11 13-12 12-3 21-3 28 0 4 2 6 6 9 10 3 6 4 14 6 22 13 53 44 55 65 35l20-21c68-86 125-175 173-289 46-123 58-235-47-327l-53-31c-27-12-45-10-66-13l-226 2c-90-15-153 35-205 122zm625 168c27 28 28 41 47 77 10 30-5 37-11 48-9 8-18 16-29 23l-17 11 7 17c9 32-24 48-44 32-18-16-18-25-24-34m22-46l35-19c11-9 16-19 10-37-9-15-2-6-12-19M235 420c24 34 43 74 97 69l-7-45c-18 11-39-22-54-52"/>
    <path fill="#fff" d="M496 182L676 39l62 78-180 143z"/>
    <path stroke-width="14" stroke="#a09f9f" d="M489 165l68 89M663 28l69 89m-217 28l69 88m-38-113l68 89M578 95l68 89M608 72l70 87M639 48l69 87"/>
    <path stroke-width="49" stroke="#007dc9" d="M30 527L659 31"/>
    <path stroke-width="16" stroke="#728f9e" d="M507 262c88 29 214 20 279 1"/>
    <path stroke="#7cceef" fill="#fff" d="M791 197c38-7 2-84-40-49-2-23-47-34-52-7-16-19-59-8-62 37-20-7-88-6-57 51-63-12-62 56-31 51 7 33 38 34 60 12 15 25 51 22 70-5 11 12 67 17 74-36 43 20 61-42 38-54z"/>
    <path fill="#c9eafc" d="M628 261c24 13 37 2 44-18 31 30 59 4 58-20 28 1 33-13 27-36 23 25 18 41-14 46-7 36-42 45-67 27-12 17-27 29-48 1z"/>
    <g stroke-width="16" stroke="#7cceef" fill="#fff">
      <circle cx="837" cy="108" r="38"/>
      <circle cx="860" cy="211" r="35"/>
    </g>
    <path fill="#7cceef" d="M861 232c29-4 21-21 17-29 0 13 2 21-17 29zm-24-102c30 3 25-22 20-32 1 14 1 26-20 32z"/>
    <g fill="#000">
      <circle cx="529" cy="396" r="28"/>
      <circle cx="765" cy="396" r="28"/>
    </g>
    <path stroke-width="26" stroke="#000" d="M579 445c-7 78 139 82 136 0"/>
    <g fill="#f7c8dc">
      <ellipse rx="57" ry="29" cx="464" cy="475"/>
      <ellipse rx="57" ry="29" cx="831" cy="475"/>
    </g>
    <ellipse stroke-width="20" stroke="#728f9e" fill="#fff" cx="10" cy="435" rx="58" ry="48" transform="rotate(-30)"/>
  </g>
</svg>
